# xmcd
# 
# Track frame offsets:
#     180
#     17003
#     31865
#     45108
#     58723
#     68971
#     82985
#     99240
#     117903
#     133794
# 
# Disc length: 1978
# 
# Revision: 5
# Processed by: cddbd v1.5.2PL0 Copyright (c) Steve Scherf et al.
# Submitted via: fre:ac v1.0.17
# 
DISCID=7407b80a
DTITLE=Various Artist - New Country - Volume 3 - Number 9
DYEAR=1996
DGENRE=Country
TTITLE0=Robbie Fulks - The Buck Starts Here
TTITLE1=Johnny Rodriguez - You Can Say That Again
TTITLE2=Paul Jefferson - I Might Just Make It
TTITLE3=Jim Lauderdale - Seems Like You're Gonna Take Me Back
TTITLE4=Amy Rigby - Down Side Of Love
TTITLE5=Billy Ray Cyrus - Trail Of Tears
TTITLE6=Davis Daniel - Here's Lookin' At You
TTITLE7=John Gorka - Can't Make Up My Mind
TTITLE8=Judith Edelman - Every Day You're Gone
TTITLE9=Doyle Lawson and Quicksilver - There Is A God
EXTD=
EXTT0=
EXTT1=
EXTT2=
EXTT3=
EXTT4=
EXTT5=
EXTT6=
EXTT7=
EXTT8=
EXTT9=
PLAYORDER=
